<svg width="500" height="500"><g transform="translate(-123.83305555879303, -118.88264705539564) "><g><line x1="449.53438771109893" x2="449.53438771109893" y1="500" y2="470.8628104567546" transform="" style="stroke: brown; stroke-width: 3; stroke-linecap: butt;"></line><line x1="449.53438771109893" x2="449.53438771109893" y1="441.72562091350915" y2="470.8628104567546" transform="" style="stroke-width: 3; stroke: #2c3e50;"></line></g><g><line x1="399.06877542219786" x2="373.83305555879303" y1="412.5884313702637" y2="398.019836598641" transform="" style="stroke: #2c3e50; stroke-width: 3; stroke-linecap: butt;"></line><line x1="348.5973356953882" x2="373.83305555879303" y1="383.4512418270183" y2="398.019836598641" transform="" style="stroke-width: 3; stroke: brown;"></line></g><g><line x1="399.06877542219786" x2="424.3015815666484" y1="296.03967319728207" y2="310.6082679689048" transform="" style="stroke: brown; stroke-width: 3; stroke-linecap: butt;"></line><line x1="449.53438771109893" x2="424.3015815666484" y1="325.1768627405275" y2="310.6082679689048" transform="" style="stroke-width: 3; stroke: #2c3e50;"></line></g><g><line x1="298.1317234064871" x2="272.89891726203655" y1="354.3140522837729" y2="339.7454575121502" transform="" style="stroke: #2c3e50; stroke-width: 3; stroke-linecap: butt;"></line><line x1="247.66611111758604" x2="272.89891726203655" y1="325.1768627405275" y2="339.7454575121502" transform="" style="stroke-width: 3; stroke: brown;"></line></g><g><line x1="500" x2="474.76719385554946" y1="237.76529411079122" y2="252.33388888241393" transform="" style="stroke: brown; stroke-width: 3; stroke-linecap: butt;"></line><line x1="449.53438771109893" x2="474.76719385554946" y1="266.90248365403664" y2="252.33388888241393" transform="" style="stroke-width: 3; stroke: #2c3e50;"></line></g><g><line x1="348.5973356953882" x2="373.83305555879303" y1="325.1768627405275" y2="339.7454575121502" transform="" style="stroke: #2c3e50; stroke-width: 3; stroke-linecap: butt;"></line><line x1="399.06877542219786" x2="373.83305555879303" y1="354.3140522837729" y2="339.7454575121502" transform="" style="stroke-width: 3; stroke: brown;"></line></g><g><line x1="449.53438771109893" x2="424.3015815666484" y1="441.72562091350915" y2="427.15702614188643" transform="" style="stroke: #2c3e50; stroke-width: 3; stroke-linecap: butt;"></line><line x1="399.06877542219786" x2="424.3015815666484" y1="412.5884313702637" y2="427.15702614188643" transform="" style="stroke-width: 3; stroke: #2c3e50;"></line></g><g><line x1="449.53438771109893" x2="474.76719385554946" y1="441.72562091350915" y2="427.15702614188643" transform="" style="stroke: #2c3e50; stroke-width: 3; stroke-linecap: butt;"></line><line x1="500" x2="474.76719385554946" y1="412.5884313702637" y2="427.15702614188643" transform="" style="stroke-width: 3; stroke: #2c3e50;"></line></g><g><line x1="348.5973356953882" x2="373.83305555879303" y1="441.72562091350915" y2="427.15702614188643" transform="" style="stroke: #2c3e50; stroke-width: 3; stroke-linecap: butt;"></line><line x1="399.06877542219786" x2="373.83305555879303" y1="412.5884313702637" y2="427.15702614188643" transform="" style="stroke-width: 3; stroke: #2c3e50;"></line></g><g><line x1="449.53438771109893" x2="449.53438771109893" y1="325.1768627405275" y2="296.03967319728207" transform="" style="stroke: #2c3e50; stroke-width: 3; stroke-linecap: butt;"></line><line x1="449.53438771109893" x2="449.53438771109893" y1="266.90248365403664" y2="296.03967319728207" transform="" style="stroke-width: 3; stroke: #2c3e50;"></line></g><g><line x1="449.53438771109893" x2="474.76719385554946" y1="325.1768627405275" y2="339.7454575121502" transform="" style="stroke: #2c3e50; stroke-width: 3; stroke-linecap: butt;"></line><line x1="500" x2="474.76719385554946" y1="354.3140522837729" y2="339.7454575121502" transform="" style="stroke-width: 3; stroke: #2c3e50;"></line></g><g><line x1="298.1317234064871" x2="323.3645295509376" y1="354.3140522837729" y2="339.7454575121502" transform="" style="stroke: #2c3e50; stroke-width: 3; stroke-linecap: butt;"></line><line x1="348.5973356953882" x2="323.3645295509376" y1="325.1768627405275" y2="339.7454575121502" transform="" style="stroke-width: 3; stroke: #2c3e50;"></line></g><g><line x1="298.1317234064871" x2="298.1317234064871" y1="354.3140522837729" y2="383.4512418270183" transform="" style="stroke: #2c3e50; stroke-width: 3; stroke-linecap: butt;"></line><line x1="298.1317234064871" x2="298.1317234064871" y1="412.5884313702637" y2="383.4512418270183" transform="" style="stroke-width: 3; stroke: #2c3e50;"></line></g><g><line x1="449.53438771109893" x2="424.3015815666484" y1="266.90248365403664" y2="252.33388888241393" transform="" style="stroke: #2c3e50; stroke-width: 3; stroke-linecap: butt;"></line><line x1="399.06877542219786" x2="424.3015815666484" y1="237.76529411079122" y2="252.33388888241393" transform="" style="stroke-width: 3; stroke: #2c3e50;"></line></g><g><line x1="348.5973356953882" x2="348.5973356953882" y1="266.90248365403664" y2="296.03967319728207" transform="" style="stroke: #2c3e50; stroke-width: 3; stroke-linecap: butt;"></line><line x1="348.5973356953882" x2="348.5973356953882" y1="325.1768627405275" y2="296.03967319728207" transform="" style="stroke-width: 3; stroke: #2c3e50;"></line></g><g><line x1="500" x2="500" y1="412.5884313702637" y2="383.4512418270183" transform="" style="stroke: #2c3e50; stroke-width: 3; stroke-linecap: butt;"></line><line x1="500" x2="500" y1="354.3140522837729" y2="383.4512418270183" transform="" style="stroke-width: 3; stroke: #2c3e50;"></line></g><g><line x1="298.1317234064871" x2="323.3645295509376" y1="412.5884313702637" y2="427.15702614188643" transform="" style="stroke: #2c3e50; stroke-width: 3; stroke-linecap: butt;"></line><line x1="348.5973356953882" x2="323.3645295509376" y1="441.72562091350915" y2="427.15702614188643" transform="" style="stroke-width: 3; stroke: #2c3e50;"></line></g><g><line x1="399.06877542219786" x2="373.83305555879303" y1="237.76529411079122" y2="252.33388888241393" transform="" style="stroke: #2c3e50; stroke-width: 3; stroke-linecap: butt;"></line><line x1="348.5973356953882" x2="373.83305555879303" y1="266.90248365403664" y2="252.33388888241393" transform="" style="stroke-width: 3; stroke: #2c3e50;"></line></g><g class="atom" transform="translate(449.53438771109893, 500) "><circle r="8" style="fill: brown;"></circle></g><g class="atom" transform="translate(348.5973356953882, 383.4512418270183) "><circle r="8" style="fill: brown;"></circle></g><g class="atom" transform="translate(399.06877542219786, 296.03967319728207) "><circle r="8" style="fill: brown;"></circle></g><g class="atom" transform="translate(247.66611111758604, 325.1768627405275) "><circle r="8" style="fill: brown;"></circle></g><g class="atom" transform="translate(500, 237.76529411079122) "><circle r="8" style="fill: brown;"></circle></g><g class="atom" transform="translate(399.06877542219786, 354.3140522837729) "><circle r="8" style="fill: brown;"></circle></g></g></svg>