<svg width="500" height="500"><g transform="translate(-86.50236077137498, -148.1028499914671) "><g><line x1="480.91117242163944" x2="465.5146054951931" y1="309.2183855736959" y2="318.10683201547306" transform="" style="stroke: #e74c3c; stroke-width: 3; stroke-linecap: butt;"></line><line x1="450.1180385687468" x2="465.5146054951931" y1="326.99527845725015" y2="318.10683201547306" transform="" style="stroke-width: 3; stroke: #3498db;"></line></g><g><line x1="467.894931452301" x2="459.0064850105239" y1="357.7848569315661" y2="342.3900676944081" transform="rotate(59.99927221917263) translate(0, -3) rotate(-59.99927221917263) " style="stroke: #e74c3c; stroke-width: 3; stroke-linecap: butt;"></line><line x1="467.894931452301" x2="459.0064850105239" y1="357.7848569315661" y2="342.3900676944081" transform="rotate(59.99927221917263) translate(0, 3) rotate(-59.99927221917263) " style="stroke: #e74c3c; stroke-width: 3; stroke-linecap: butt;"></line><line x1="450.1180385687468" x2="459.0064850105239" y1="326.99527845725015" y2="342.3900676944081" transform="rotate(59.99927221917263) translate(0, -3) rotate(-59.99927221917263) " style="stroke-width: 3; stroke: #3498db;"></line><line x1="450.1180385687468" x2="459.0064850105239" y1="326.99527845725015" y2="342.3900676944081" transform="rotate(59.99927221917263) translate(0, 3) rotate(-59.99927221917263) " style="stroke-width: 3; stroke: #3498db;"></line></g><g><line x1="450.1180385687468" x2="441.2295921269697" y1="326.99527845725015" y2="311.6004892200922" transform="rotate(59.99927221917267) translate(0, -3) rotate(-59.99927221917267) " style="stroke: #3498db; stroke-width: 3; stroke-linecap: butt;"></line><line x1="450.1180385687468" x2="441.2295921269697" y1="326.99527845725015" y2="311.6004892200922" transform="rotate(59.99927221917267) translate(0, 3) rotate(-59.99927221917267) " style="stroke: #3498db; stroke-width: 3; stroke-linecap: butt;"></line><line x1="432.34114568519254" x2="441.2295921269697" y1="296.20569998293416" y2="311.6004892200922" transform="rotate(59.99927221917267) translate(0, -3) rotate(-59.99927221917267) " style="stroke-width: 3; stroke: #e74c3c;"></line><line x1="432.34114568519254" x2="441.2295921269697" y1="296.20569998293416" y2="311.6004892200922" transform="rotate(59.99927221917267) translate(0, 3) rotate(-59.99927221917267) " style="stroke-width: 3; stroke: #e74c3c;"></line></g><g><line x1="419.32846009443085" x2="434.7232493315888" y1="344.77217134080433" y2="335.88372489902724" transform="" style="stroke: #2c3e50; stroke-width: 3; stroke-linecap: butt;"></line><line x1="450.1180385687468" x2="434.7232493315888" y1="326.99527845725015" y2="335.88372489902724" transform="" style="stroke-width: 3; stroke: #3498db;"></line></g><g><line x1="326.9561692929063" x2="318.06772285112913" y1="398.1028499914671" y2="382.70806075430914" transform="" style="stroke: #2c3e50; stroke-width: 3; stroke-linecap: butt;"></line><line x1="309.17927640935204" x2="318.06772285112913" y1="367.3132715171512" y2="382.70806075430914" transform="" style="stroke-width: 3; stroke: #8e44ad;"></line></g><g><line x1="344.7330621764605" x2="335.84461573468343" y1="428.89242846578304" y2="413.4976392286251" transform="" style="stroke: #8e44ad; stroke-width: 3; stroke-linecap: butt;"></line><line x1="326.9561692929063" x2="335.84461573468343" y1="398.1028499914671" y2="413.4976392286251" transform="" style="stroke-width: 3; stroke: #2c3e50;"></line></g><g><line x1="339.97241026224475" x2="348.8608567040219" y1="349.5363786335969" y2="364.93116787075485" transform="" style="stroke: #8e44ad; stroke-width: 3; stroke-linecap: butt;"></line><line x1="357.749303145799" x2="348.8608567040219" y1="380.32595710791287" y2="364.93116787075485" transform="" style="stroke-width: 3; stroke: #2c3e50;"></line></g><g><line x1="357.749303145799" x2="366.6377495875761" y1="380.32595710791287" y2="395.72074634507084" transform="" style="stroke: #2c3e50; stroke-width: 3; stroke-linecap: butt;"></line><line x1="375.52619602935323" x2="366.6377495875761" y1="411.1155355822288" y2="395.72074634507084" transform="" style="stroke-width: 3; stroke: #8e44ad;"></line></g><g><line x1="296.16659081859035" x2="287.2781443768132" y1="415.87974287502135" y2="400.4849536378633" transform="" style="stroke: #2c3e50; stroke-width: 3; stroke-linecap: butt;"></line><line x1="278.3896979350361" x2="287.2781443768132" y1="385.09016440070536" y2="400.4849536378633" transform="" style="stroke-width: 3; stroke: #8e44ad;"></line></g><g><line x1="313.9434837021446" x2="305.0550372603675" y1="446.6693213493373" y2="431.2745321121793" transform="" style="stroke: #8e44ad; stroke-width: 3; stroke-linecap: butt;"></line><line x1="296.16659081859035" x2="305.0550372603675" y1="415.87974287502135" y2="431.2745321121793" transform="" style="stroke-width: 3; stroke: #2c3e50;"></line></g><g><line x1="406.31577450366916" x2="397.427328061892" y1="393.33864269867456" y2="377.9438534615166" transform="" style="stroke: #8e44ad; stroke-width: 3; stroke-linecap: butt;"></line><line x1="388.5388816201149" x2="397.427328061892" y1="362.54906422435863" y2="377.9438534615166" transform="" style="stroke-width: 3; stroke: #2c3e50;"></line></g><g><line x1="370.7619887365607" x2="379.65043517833783" y1="331.7594857500427" y2="347.15427498720067" transform="" style="stroke: #8e44ad; stroke-width: 3; stroke-linecap: butt;"></line><line x1="388.5388816201149" x2="379.65043517833783" y1="362.54906422435863" y2="347.15427498720067" transform="" style="stroke-width: 3; stroke: #2c3e50;"></line></g><g><line x1="265.3770123442744" x2="256.48856590249727" y1="433.6566357585756" y2="418.2618465214176" transform="" style="stroke: #2c3e50; stroke-width: 3; stroke-linecap: butt;"></line><line x1="247.60011946072018" x2="256.48856590249727" y1="402.8670572842596" y2="418.2618465214176" transform="" style="stroke-width: 3; stroke: #8e44ad;"></line></g><g><line x1="283.15390522782866" x2="274.26545878605157" y1="464.4462142328915" y2="449.05142499573356" transform="" style="stroke: #8e44ad; stroke-width: 3; stroke-linecap: butt;"></line><line x1="265.3770123442744" x2="274.26545878605157" y1="433.6566357585756" y2="449.05142499573356" transform="" style="stroke-width: 3; stroke: #2c3e50;"></line></g><g><line x1="437.1053529779851" x2="428.21690653620794" y1="375.5617498151203" y2="360.1669605779623" transform="" style="stroke: #8e44ad; stroke-width: 3; stroke-linecap: butt;"></line><line x1="419.32846009443085" x2="428.21690653620794" y1="344.77217134080433" y2="360.1669605779623" transform="" style="stroke-width: 3; stroke: #2c3e50;"></line></g><g><line x1="401.5515672108766" x2="410.44001365265376" y1="313.9825928664884" y2="329.37738210364637" transform="" style="stroke: #8e44ad; stroke-width: 3; stroke-linecap: butt;"></line><line x1="419.32846009443085" x2="410.44001365265376" y1="344.77217134080433" y2="329.37738210364637" transform="" style="stroke-width: 3; stroke: #2c3e50;"></line></g><g><line x1="216.80698560782756" x2="225.69543204960468" y1="420.64395016781384" y2="436.0387394049718" transform="" style="stroke: #8e44ad; stroke-width: 3; stroke-linecap: butt;"></line><line x1="234.5838784913818" x2="225.69543204960468" y1="451.43352864212983" y2="436.0387394049718" transform="" style="stroke-width: 3; stroke: #2c3e50;"></line></g><g><line x1="234.5838784913818" x2="243.47232493315892" y1="451.43352864212983" y2="466.8283178792878" transform="" style="stroke: #2c3e50; stroke-width: 3; stroke-linecap: butt;"></line><line x1="252.360771374936" x2="243.47232493315892" y1="482.22310711644576" y2="466.8283178792878" transform="" style="stroke-width: 3; stroke: #8e44ad;"></line></g><g><line x1="173.00472154274985" x2="188.39951077990784" y1="486.9873144092383" y2="478.09886796746116" transform="" style="stroke: #8e44ad; stroke-width: 3; stroke-linecap: butt;"></line><line x1="203.79430001706584" x2="188.39951077990784" y1="469.21042152568407" y2="478.09886796746116" transform="" style="stroke-width: 3; stroke: #2c3e50;"></line></g><g><line x1="186.0174071335116" x2="194.90585357528872" y1="438.4208430513681" y2="453.8156322885261" transform="" style="stroke: #8e44ad; stroke-width: 3; stroke-linecap: butt;"></line><line x1="203.79430001706584" x2="194.90585357528872" y1="469.21042152568407" y2="453.8156322885261" transform="" style="stroke-width: 3; stroke: #2c3e50;"></line></g><g><line x1="221.57119290062005" x2="212.68274645884293" y1="500" y2="484.60521076284203" transform="" style="stroke: #8e44ad; stroke-width: 3; stroke-linecap: butt;"></line><line x1="203.79430001706584" x2="212.68274645884293" y1="469.21042152568407" y2="484.60521076284203" transform="" style="stroke-width: 3; stroke: #2c3e50;"></line></g><g><line x1="480.91117242163944" x2="490.4555862108197" y1="309.2183855736959" y2="314.7292223675977" transform="" style="stroke: #e74c3c; stroke-width: 3; stroke-linecap: butt;"></line><line x1="500" x2="490.4555862108197" y1="320.2400591614995" y2="314.7292223675977" transform="" style="stroke-width: 3; stroke: #7f8c8d;"></line></g><g><line x1="357.749303145799" x2="342.35273621935266" y1="380.32595710791287" y2="389.21440354969" transform="" style="stroke: #2c3e50; stroke-width: 3; stroke-linecap: butt;"></line><line x1="326.9561692929063" x2="342.35273621935266" y1="398.1028499914671" y2="389.21440354969" transform="" style="stroke-width: 3; stroke: #2c3e50;"></line></g><g><line x1="326.9561692929063" x2="311.5613800557483" y1="398.1028499914671" y2="406.9912964332442" transform="" style="stroke: #2c3e50; stroke-width: 3; stroke-linecap: butt;"></line><line x1="296.16659081859035" x2="311.5613800557483" y1="415.87974287502135" y2="406.9912964332442" transform="" style="stroke-width: 3; stroke: #2c3e50;"></line></g><g><line x1="357.749303145799" x2="373.14409238295696" y1="380.32595710791287" y2="371.4375106661357" transform="" style="stroke: #2c3e50; stroke-width: 3; stroke-linecap: butt;"></line><line x1="388.5388816201149" x2="373.14409238295696" y1="362.54906422435863" y2="371.4375106661357" transform="" style="stroke-width: 3; stroke: #2c3e50;"></line></g><g><line x1="265.3770123442744" x2="280.7718015814324" y1="433.6566357585756" y2="424.7681893167985" transform="" style="stroke: #2c3e50; stroke-width: 3; stroke-linecap: butt;"></line><line x1="296.16659081859035" x2="280.7718015814324" y1="415.87974287502135" y2="424.7681893167985" transform="" style="stroke-width: 3; stroke: #2c3e50;"></line></g><g><line x1="388.5388816201149" x2="403.9336708572729" y1="362.54906422435863" y2="353.6606177825815" transform="" style="stroke: #2c3e50; stroke-width: 3; stroke-linecap: butt;"></line><line x1="419.32846009443085" x2="403.9336708572729" y1="344.77217134080433" y2="353.6606177825815" transform="" style="stroke-width: 3; stroke: #2c3e50;"></line></g><g><line x1="234.5838784913818" x2="249.9804454178281" y1="451.43352864212983" y2="442.5450822003527" transform="" style="stroke: #2c3e50; stroke-width: 3; stroke-linecap: butt;"></line><line x1="265.3770123442744" x2="249.9804454178281" y1="433.6566357585756" y2="442.5450822003527" transform="" style="stroke-width: 3; stroke: #2c3e50;"></line></g><g><line x1="203.79430001706584" x2="219.1890892542238" y1="469.21042152568407" y2="460.321975083907" transform="" style="stroke: #2c3e50; stroke-width: 3; stroke-linecap: butt;"></line><line x1="234.5838784913818" x2="219.1890892542238" y1="451.43352864212983" y2="460.321975083907" transform="" style="stroke-width: 3; stroke: #2c3e50;"></line></g><g class="atom" transform="translate(450.1180385687468, 326.99527845725015) "><circle r="8" style="fill: #3498db;"></circle></g><g class="atom" transform="translate(309.17927640935204, 367.3132715171512) "><circle r="8" style="fill: #8e44ad;"></circle></g><g class="atom" transform="translate(344.7330621764605, 428.89242846578304) "><circle r="8" style="fill: #8e44ad;"></circle></g><g class="atom" transform="translate(339.97241026224475, 349.5363786335969) "><circle r="8" style="fill: #8e44ad;"></circle></g><g class="atom" transform="translate(375.52619602935323, 411.1155355822288) "><circle r="8" style="fill: #8e44ad;"></circle></g><g class="atom" transform="translate(278.3896979350361, 385.09016440070536) "><circle r="8" style="fill: #8e44ad;"></circle></g><g class="atom" transform="translate(313.9434837021446, 446.6693213493373) "><circle r="8" style="fill: #8e44ad;"></circle></g><g class="atom" transform="translate(406.31577450366916, 393.33864269867456) "><circle r="8" style="fill: #8e44ad;"></circle></g><g class="atom" transform="translate(370.7619887365607, 331.7594857500427) "><circle r="8" style="fill: #8e44ad;"></circle></g><g class="atom" transform="translate(247.60011946072018, 402.8670572842596) "><circle r="8" style="fill: #8e44ad;"></circle></g><g class="atom" transform="translate(283.15390522782866, 464.4462142328915) "><circle r="8" style="fill: #8e44ad;"></circle></g><g class="atom" transform="translate(437.1053529779851, 375.5617498151203) "><circle r="8" style="fill: #8e44ad;"></circle></g><g class="atom" transform="translate(401.5515672108766, 313.9825928664884) "><circle r="8" style="fill: #8e44ad;"></circle></g><g class="atom" transform="translate(216.80698560782756, 420.64395016781384) "><circle r="8" style="fill: #8e44ad;"></circle></g><g class="atom" transform="translate(252.360771374936, 482.22310711644576) "><circle r="8" style="fill: #8e44ad;"></circle></g><g class="atom" transform="translate(173.00472154274985, 486.9873144092383) "><circle r="8" style="fill: #8e44ad;"></circle></g><g class="atom" transform="translate(186.0174071335116, 438.4208430513681) "><circle r="8" style="fill: #8e44ad;"></circle></g><g class="atom" transform="translate(221.57119290062005, 500) "><circle r="8" style="fill: #8e44ad;"></circle></g><g class="atom" transform="translate(480.91117242163944, 309.2183855736959) "><circle r="8" style="fill: #e74c3c;"></circle></g><g class="atom" transform="translate(467.894931452301, 357.7848569315661) "><circle r="8" style="fill: #e74c3c;"></circle></g><g class="atom" transform="translate(432.34114568519254, 296.20569998293416) "><circle r="8" style="fill: #e74c3c;"></circle></g><g class="atom" transform="translate(500, 320.2400591614995) "><circle r="8" style="fill: #7f8c8d;"></circle></g></g></svg>